<svg version="1.1" xmlns="http://www.w3.org/2000/svg" width="1340" height="1340">
<path d="M0 0 C1.45141782 -0.00195437 2.9028351 -0.00434377 4.35425156 -0.00712797 C8.35167989 -0.01352049 12.3490881 -0.01369019 16.34652057 -0.01285056 C20.69227805 -0.01302021 25.03802837 -0.01892804 29.38378227 -0.02409142 C38.00733647 -0.03341608 46.63088554 -0.03733925 55.25444415 -0.03961039 C65.58245838 -0.04257285 75.91046581 -0.05127058 86.23847647 -0.06002467 C111.20408 -0.08086935 136.1696847 -0.0913393 161.1352949 -0.10015428 C172.94746021 -0.10436115 184.75962501 -0.10958312 196.57178989 -0.11483881 C237.01057136 -0.1327299 277.44935298 -0.14772526 317.88813782 -0.155159 C320.42696702 -0.15563375 322.96579623 -0.15610964 325.50462543 -0.15658666 C327.3931644 -0.15694122 327.3931644 -0.15694122 329.31985567 -0.15730295 C335.69865416 -0.15850414 342.07745266 -0.15971959 348.45625114 -0.16094494 C350.35508636 -0.16130516 350.35508636 -0.16130516 352.29228189 -0.16167267 C393.32526704 -0.16956365 434.35822326 -0.19299089 475.39119578 -0.22550088 C518.77859217 -0.25981346 562.16597163 -0.27951151 605.5533818 -0.28280324 C610.31825503 -0.28322077 615.08312826 -0.28370033 619.84800148 -0.28422642 C621.60785626 -0.28441121 621.60785626 -0.28441121 623.40326367 -0.28459973 C642.26971019 -0.28693008 661.13612307 -0.30258096 680.0025576 -0.32306826 C698.97503081 -0.34334347 717.9474637 -0.34879555 736.91994573 -0.33929763 C748.18451053 -0.33408914 759.44894092 -0.33992936 770.71348633 -0.3618323 C778.24868084 -0.37537359 785.78378317 -0.37423405 793.31897867 -0.36143034 C797.6054667 -0.35455582 801.8916984 -0.3537876 806.17816319 -0.37099043 C829.46520881 -0.45859276 851.34118791 0.51578238 872.92255974 10.13422108 C873.58594353 10.42812733 874.24932732 10.72203358 874.93281364 11.02484608 C906.54662813 25.30742127 930.76083198 51.45422363 943.34150505 83.71332264 C946.29106687 91.6836803 948.36248165 99.78736259 949.92255974 108.13422108 C950.09905168 109.07517026 950.27554363 110.01611944 950.45738381 110.98558223 C951.2944159 117.01779491 951.06389575 123.13506558 951.05678082 129.21166134 C951.05873519 130.66307916 951.06112458 132.11449644 951.06390879 133.5659129 C951.07030131 137.56334123 951.070471 141.56074944 951.06963138 145.55818191 C951.06980103 149.90393939 951.07570885 154.24968971 951.08087224 158.59544361 C951.09019689 167.21899781 951.09412006 175.84254687 951.0963912 184.46610549 C951.09935367 194.79411972 951.1080514 205.12212715 951.11680548 215.45013781 C951.13765017 240.41574134 951.14812011 265.38134604 951.15693509 290.34695624 C951.16114197 302.15912155 951.16636393 313.97128635 951.17161962 325.78345123 C951.18951072 366.2222327 951.20450607 406.66101432 951.21193981 447.09979916 C951.21241457 449.63862836 951.21289046 452.17745757 951.21336747 454.71628677 C951.21372204 456.60482574 951.21372204 456.60482574 951.21408376 458.53151701 C951.21528496 464.9103155 951.21650041 471.28911399 951.21772575 477.66791248 C951.2179659 478.93380263 951.21820605 480.19969277 951.21845348 481.50394323 C951.22634446 522.53692837 951.2497717 563.5698846 951.2822817 604.60285712 C951.31659427 647.9902535 951.33629232 691.37763297 951.33958405 734.76504314 C951.34000159 739.52991637 951.34048115 744.2947896 951.34100723 749.05966282 C951.34113042 750.23289934 951.34125362 751.40613586 951.34138054 752.61492501 C951.34371089 771.48137152 951.35936177 790.34778441 951.37984908 809.21421894 C951.40012429 828.18669215 951.40557637 847.15912504 951.39607845 866.13160707 C951.39086995 877.39617187 951.39671017 888.66060226 951.41861312 899.92514767 C951.4321544 907.46034218 951.43101487 914.99544451 951.41821116 922.53064001 C951.41133663 926.81712804 951.41056842 931.10335974 951.42777125 935.38982452 C951.51537358 958.67687015 950.54099844 980.55284924 940.92255974 1002.13422108 C940.62865349 1002.79760487 940.33474724 1003.46098866 940.03193474 1004.14447498 C925.74935954 1035.75828947 899.60255718 1059.97249332 867.34345818 1072.55316639 C859.37310052 1075.50272821 851.26941823 1077.57414299 842.92255974 1079.13422108 C841.98161056 1079.31071302 841.04066138 1079.48720497 840.07119858 1079.66904515 C834.0389859 1080.50607724 827.92171524 1080.27555709 821.84511948 1080.26844215 C820.39370166 1080.27039652 818.94228437 1080.27278592 817.49086791 1080.27557012 C813.49343958 1080.28196265 809.49603137 1080.28213234 805.49859891 1080.28129272 C801.15284142 1080.28146236 796.80709111 1080.28737019 792.46133721 1080.29253358 C783.83778301 1080.30185823 775.21423394 1080.3057814 766.59067533 1080.30805254 C756.26266109 1080.31101501 745.93465367 1080.31971274 735.606643 1080.32846682 C710.64103948 1080.34931151 685.67543477 1080.35978145 660.70982457 1080.36859643 C648.89765927 1080.37280331 637.08549447 1080.37802527 625.27332959 1080.38328096 C584.83454812 1080.40117206 544.3957665 1080.41616741 503.95698166 1080.42360115 C501.41815245 1080.42407591 498.87932325 1080.4245518 496.34049404 1080.42502881 C495.08146807 1080.42526519 493.82244209 1080.42550156 492.52526381 1080.4257451 C486.14646531 1080.4269463 479.76766682 1080.42816175 473.38886833 1080.42938709 C471.49003311 1080.42974732 471.49003311 1080.42974732 469.55283759 1080.43011482 C428.51985244 1080.4380058 387.48689621 1080.46143304 346.45392369 1080.49394304 C303.06652731 1080.52825561 259.67914785 1080.54795366 216.29173768 1080.55124539 C211.52686444 1080.55166292 206.76199122 1080.55214249 201.997118 1080.55266857 C200.82388147 1080.55279176 199.65064495 1080.55291495 198.44185581 1080.55304188 C179.57540929 1080.55537223 160.70899641 1080.57102311 141.84256187 1080.59151042 C122.87008867 1080.61178562 103.89765578 1080.6172377 84.92517374 1080.60773978 C73.66060894 1080.60253129 62.39617855 1080.60837151 51.13163315 1080.63027446 C43.59643864 1080.64381574 36.06133631 1080.64267621 28.52614081 1080.6298725 C24.23965278 1080.62299797 19.95342108 1080.62222976 15.66695629 1080.63943259 C-7.62008933 1080.72703491 -29.49606843 1079.75265978 -51.07744026 1070.13422108 C-52.07251595 1069.6933617 -52.07251595 1069.6933617 -53.08769417 1069.24359608 C-84.70150865 1054.96102088 -108.9157125 1028.81421852 -121.49638557 996.55511951 C-124.4459474 988.58476186 -126.51736217 980.48107957 -128.07744026 972.13422108 C-128.25393221 971.1932719 -128.43042415 970.25232271 -128.61226434 969.28285992 C-129.44929642 963.25064724 -129.21877627 957.13337658 -129.21166134 951.05678082 C-129.21361571 949.605363 -129.2160051 948.15394571 -129.21878931 946.70252925 C-129.22518183 942.70510092 -129.22535153 938.70769271 -129.2245119 934.71026025 C-129.22468155 930.36450276 -129.23058938 926.01875245 -129.23575276 921.67299855 C-129.24507742 913.04944435 -129.24900059 904.42589528 -129.25127173 895.80233667 C-129.25423419 885.47432243 -129.26293192 875.14631501 -129.27168601 864.81830434 C-129.29253069 839.85270082 -129.30300064 814.88709611 -129.31181562 789.92148591 C-129.31602249 778.10932061 -129.32124446 766.29715581 -129.32650014 754.48499093 C-129.34439124 714.04620946 -129.35938659 673.60742784 -129.36682034 633.168643 C-129.36729509 630.62981379 -129.36777098 628.09098459 -129.368248 625.55215538 C-129.36848437 624.2931294 -129.36872075 623.03410343 -129.36896429 621.73692515 C-129.37016548 615.35812665 -129.37138093 608.97932816 -129.37260628 602.60052967 C-129.37284643 601.33463953 -129.37308658 600.06874938 -129.373334 598.76449893 C-129.38122499 557.73151378 -129.40465222 516.69855755 -129.43716222 475.66558503 C-129.47147479 432.27818865 -129.49117285 388.89080919 -129.49446458 345.50339901 C-129.49488211 340.73852578 -129.49536167 335.97365256 -129.49588776 331.20877934 C-129.49601095 330.03554281 -129.49613414 328.86230629 -129.49626106 327.65351714 C-129.49859142 308.78707063 -129.5142423 289.92065775 -129.5347296 271.05422321 C-129.55500481 252.08175001 -129.56045689 233.10931712 -129.55095897 214.13683508 C-129.54575048 202.87227028 -129.5515907 191.60783989 -129.57349364 180.34329449 C-129.58703493 172.80809998 -129.58589539 165.27299765 -129.57309168 157.73780215 C-129.56621716 153.45131412 -129.56544894 149.16508242 -129.58265177 144.87861763 C-129.6702541 121.59157201 -128.69587896 99.71559291 -119.07744026 78.13422108 C-118.78353401 77.47083729 -118.48962776 76.8074535 -118.18681526 76.12396717 C-103.90424006 44.51015269 -77.75743771 20.29594883 -45.4983387 7.71527576 C-37.52798104 4.76571394 -29.42429875 2.69429917 -21.07744026 1.13422108 C-20.13649108 0.95772913 -19.1955419 0.78123719 -18.22607911 0.599397 C-12.19386643 -0.23763508 -6.07659576 -0.00711493 0 0 Z " fill="#22AD01" transform="translate(259.0774402618408,129.86577892303467)"/>
<path d="M0 0 C0.78984441 -0.00981429 1.57968882 -0.01962858 2.3934679 -0.02974027 C3.25531035 -0.02013527 4.11715281 -0.01053026 5.00511169 -0.00063419 C5.92546802 -0.00616859 6.84582434 -0.01170299 7.79407024 -0.01740509 C10.886093 -0.03104555 13.97731324 -0.01602293 17.06932068 -0.00113773 C19.28374068 -0.00492008 21.49815831 -0.01041943 23.71257019 -0.01751041 C29.73837743 -0.03150615 35.76390037 -0.0202604 41.78969193 -0.0037992 C48.10645524 0.01004768 54.42320196 0.00359057 60.73997498 0.00006771 C71.36608584 -0.00263786 81.99207255 0.01077209 92.6181488 0.03401852 C103.51272281 0.05784926 114.40714719 0.06505905 125.30174255 0.05452633 C138.45572838 0.04183188 151.60963929 0.044477 164.7636261 0.06018543 C169.77106859 0.06590941 174.77846078 0.06589072 179.78590393 0.06112003 C185.70881851 0.05629997 191.63152928 0.06665735 197.55440521 0.08807468 C199.71327782 0.09357901 201.87217028 0.09416741 204.03104401 0.08912182 C221.16583083 0.05413961 238.1278416 1.21108566 254.62791443 6.18807125 C255.9220929 6.57152706 255.9220929 6.57152706 257.24241638 6.96272945 C276.84899038 12.99372384 295.57129069 22.90991315 311.00291443 36.50057125 C311.84080505 37.23018063 312.67869568 37.95979 313.54197693 38.71150875 C316.06145245 40.94173935 318.53989368 43.20825491 321.00291443 45.50057125 C321.6809613 46.1244775 322.35900818 46.74838375 323.05760193 47.39119625 C341.31974244 64.84657554 353.8634787 88.52517822 361.31541443 112.43807125 C361.54591492 113.16300777 361.77641541 113.8879443 362.01390076 114.63484859 C366.6768808 130.54343641 367.44566601 146.70542529 367.39109802 163.16829586 C367.39517513 165.26670255 367.40052333 167.36510709 367.4070282 169.46350765 C367.42057309 175.10409607 367.41545653 180.7445178 367.40589094 186.38510871 C367.39822618 192.32542022 367.40535878 198.26571869 367.41004944 204.20603085 C367.41548775 214.17752771 367.4083666 224.14895763 367.39402771 234.1204443 C367.37770947 245.59996183 367.38299159 257.07931941 367.39950693 268.55883306 C367.41318228 278.4660423 367.41501191 288.37320377 367.40719092 298.28041941 C367.40254691 304.17510313 367.40179825 310.06971203 367.41180038 315.96439075 C367.42055626 321.5107622 367.4142931 327.05693027 367.39711761 332.60328007 C367.39319811 334.62187649 367.39420737 336.64049044 367.40090561 338.65907955 C367.45126128 355.39548992 366.17447663 372.01644684 361.31541443 388.12557125 C361.05977722 388.9883569 360.80414001 389.85114254 360.54075623 390.7400732 C354.34059354 410.89660805 344.09267377 429.76581463 330.00291443 445.50057125 C329.361203 446.23050289 329.361203 446.23050289 328.70652771 446.97518063 C318.04205262 459.09512423 306.49762908 468.70982819 293.00291443 477.50057125 C292.01549255 478.15154781 291.02807068 478.80252438 290.01072693 479.4732275 C263.73169993 495.81386894 233.05372985 501.00161385 202.64891052 500.8728857 C200.59637264 500.87532156 198.54383597 500.8790485 196.49130249 500.88394833 C190.98105837 500.89325123 185.4709952 500.88402288 179.96076536 500.8706162 C174.15699503 500.85918632 168.35323211 500.86341795 162.54945374 500.86536312 C152.81092929 500.86624234 143.07247494 500.85524273 133.33396912 500.83675289 C122.11855401 500.81557917 110.90324136 500.81208024 99.6878103 500.81831485 C88.83930588 500.8240338 77.99083708 500.8183339 67.1423378 500.8071413 C62.55191506 500.80252994 57.96151434 500.80160629 53.37108994 500.80372715 C47.9552479 500.80562805 42.53950832 500.79736956 37.12368965 500.78166676 C35.15101737 500.77746962 33.1783346 500.77654198 31.20565987 500.77935696 C-17.58601831 500.83835741 -57.58525897 484.75247107 -92.37208557 450.13729 C-99.16374903 442.92114758 -104.60363822 434.78007989 -109.99708557 426.50057125 C-110.97355042 425.01943844 -110.97355042 425.01943844 -111.96974182 423.50838375 C-128.80536926 396.43332003 -133.30441617 366.01979879 -133.28761292 334.81795406 C-133.29360933 332.57580501 -133.30041741 330.333658 -133.30796814 328.09151363 C-133.32550379 322.05105164 -133.33031771 316.01064643 -133.33159971 309.97016144 C-133.33302685 306.19369901 -133.33730664 302.41725078 -133.34259415 298.64079189 C-133.36009162 286.13862103 -133.36943961 273.63648214 -133.3679332 261.13430157 C-133.36785329 260.46336393 -133.36777337 259.79242628 -133.36769104 259.10115719 C-133.36760928 258.42939429 -133.36752752 257.75763138 -133.36744328 257.06551203 C-133.36662761 246.14074291 -133.38585039 235.21611071 -133.41396777 224.29138127 C-133.44267214 213.04948515 -133.45614329 201.80765396 -133.45478022 190.56571364 C-133.45426985 184.2634523 -133.45999702 177.96134685 -133.48113632 171.6591177 C-133.50043538 165.74592555 -133.5007005 159.83303967 -133.48610306 153.919837 C-133.48400478 151.74777182 -133.48877604 149.57568783 -133.50082397 147.40365505 C-133.51617556 144.4453002 -133.5070359 141.4880155 -133.49156189 138.52968502 C-133.50184902 137.66511409 -133.51213614 136.80054316 -133.522735 135.90977311 C-133.47859211 132.10715736 -133.44420507 130.13019787 -131.19861794 126.96799755 C-127.87034983 124.74954815 -124.57651135 124.94305529 -120.71192932 124.98299313 C-119.87896332 124.97598385 -119.04599731 124.96897457 -118.18778992 124.96175289 C-115.43638196 124.94415806 -112.68600386 124.95580066 -109.93458557 124.96932125 C-108.02174177 124.96662676 -106.1088993 124.9627447 -104.19606018 124.95772457 C-100.18787084 124.95182751 -96.18003814 124.96039917 -92.17189026 124.97908688 C-87.03343315 125.00187653 -81.8958117 124.98875456 -76.75738525 124.96479702 C-72.80769043 124.95034466 -68.85819382 124.95494245 -64.90849304 124.96530819 C-63.01385906 124.96797703 -61.1192071 124.96470019 -59.22459412 124.95538998 C-56.57665829 124.9452336 -53.93007674 124.96071201 -51.28224182 124.98299313 C-50.49874359 124.9748962 -49.71524536 124.96679928 -48.90800476 124.95845699 C-45.49182129 125.0117271 -43.36558417 125.2499041 -40.51062012 127.19196224 C-38.66557184 130.00623238 -38.49595722 131.60440461 -38.49537659 134.95589352 C-38.48599564 136.04704967 -38.47661469 137.13820583 -38.46694946 138.26242733 C-38.47818344 139.43542889 -38.48941742 140.60843044 -38.50099182 141.8169775 C-38.49953659 143.02498516 -38.49808136 144.23299282 -38.49658203 145.47760677 C-38.49824167 148.03045216 -38.50981002 150.58330748 -38.53053284 153.1360693 C-38.55950085 157.05162008 -38.5511393 160.9658187 -38.5381012 164.88143063 C-38.54433797 167.35995285 -38.55272843 169.8384708 -38.56349182 172.3169775 C-38.56055618 173.49200329 -38.55762054 174.66702908 -38.55459595 175.87766171 C-38.56728012 176.9656657 -38.57996429 178.0536697 -38.59303284 179.17464352 C-38.59843582 180.13298595 -38.60383881 181.09132839 -38.60940552 182.07871151 C-39.08472134 185.04803697 -39.58164775 185.74140388 -41.99708557 187.50057125 C-44.90797424 187.84114742 -44.90797424 187.84114742 -48.41505432 187.79354 C-49.6686676 187.78387203 -50.92228088 187.77420406 -52.21388245 187.76424313 C-53.52421448 187.73910641 -54.83454651 187.71396969 -56.18458557 187.68807125 C-57.5198572 187.67302092 -58.85514494 187.65933312 -60.19044495 187.64705563 C-63.45973134 187.61164819 -66.7282065 187.56226015 -69.99708557 187.50057125 C-69.98323914 209.63309679 -69.94081782 231.76540661 -69.864995 253.89780998 C-69.8304397 264.17582127 -69.80500194 274.45369975 -69.80152893 284.73177242 C-69.79847582 293.69709065 -69.77780548 302.66217179 -69.736561 311.62739855 C-69.71535086 316.36818233 -69.70256814 321.10863006 -69.71093178 325.84946156 C-69.71854859 330.32547189 -69.70234433 334.80080563 -69.66902542 339.27669239 C-69.66088296 340.9062771 -69.6609328 342.53593028 -69.67048836 344.16550732 C-69.80217616 369.12446605 -60.22432703 391.49027336 -42.99708557 409.50057125 C-42.38349182 410.18893063 -41.76989807 410.87729 -41.13771057 411.58650875 C-27.43664298 426.40005619 -6.09452197 435.73638551 13.92377281 436.86760426 C19.40078539 437.05750953 24.87579242 437.03099027 30.35520935 437.00228024 C32.44335289 437.0060728 34.5314939 437.0115805 36.61962891 437.01865292 C42.2393268 437.03249995 47.85871485 437.02151506 53.47839522 437.0049417 C59.38682344 436.9909895 65.29523552 436.99756257 71.20367432 437.00107479 C81.11816849 437.00376829 91.03254101 436.9903734 100.94700623 436.96712399 C112.38002861 436.94049775 123.81284801 436.93877745 135.2458908 436.95051235 C146.28716621 436.96132052 157.3283688 436.95508065 168.36963844 436.94095707 C173.04990185 436.93522583 177.73011146 436.93525724 182.4103756 436.94002247 C187.92716619 436.94482248 193.44373666 436.93456613 198.96048546 436.91306782 C200.97514606 436.9075416 202.98982799 436.90699593 205.0044899 436.91202068 C232.48919873 436.97193435 255.92103697 429.99384196 276.00291443 410.50057125 C276.68869568 409.88826656 277.37447693 409.27596188 278.08103943 408.6451025 C293.12923526 394.75218155 302.19612992 372.85368611 303.37851334 352.56970119 C303.58037906 347.07219741 303.56753007 341.576158 303.55223083 336.07576656 C303.5609474 333.97927285 303.57132105 331.88278548 303.58320618 329.78630733 C303.60977043 324.14138286 303.61116779 318.49672794 303.60607958 312.85175323 C303.60392519 308.11582256 303.61374493 303.37994479 303.62329042 298.64402556 C303.64540663 287.45814558 303.64639775 276.27239996 303.63426208 265.08650875 C303.62219074 253.60009964 303.64680045 242.11418102 303.68940222 230.62785554 C303.72478934 220.71725635 303.73661259 210.80681219 303.73012674 200.89615226 C303.726525 194.99850298 303.73153063 189.10120358 303.75955582 183.20361233 C303.7849577 177.65133828 303.78059742 172.09982112 303.75473404 166.54755688 C303.75005591 164.52776346 303.75527643 162.50791469 303.77198029 160.48818493 C303.96052841 135.88686124 297.30783307 114.20621411 281.00291443 95.50057125 C280.48600037 94.82896969 279.9690863 94.15736813 279.43650818 93.465415 C266.78261246 77.51326075 243.79816319 66.95206341 224.00291443 64.50057125 C221.58501072 64.40479557 219.16500634 64.35494645 216.74523926 64.34235287 C216.05080215 64.33742321 215.35636505 64.33249355 214.6408844 64.32741451 C212.32544689 64.31213728 210.01003654 64.30370453 207.69456482 64.29524899 C206.00162996 64.28552549 204.30869749 64.27537958 202.61576748 64.2648468 C198.0933092 64.2378708 193.57084127 64.21665555 189.04834747 64.19665432 C184.80039453 64.17698848 180.55247836 64.15209963 176.30455017 64.12764645 C163.89153267 64.05922121 151.47847023 63.99915407 139.06541443 63.93807125 C111.32478943 63.79369625 83.58416443 63.64932125 55.00291443 63.50057125 C55.00291443 145.67057125 55.00291443 227.84057125 55.00291443 312.50057125 C95.92291443 312.50057125 136.84291443 312.50057125 179.00291443 312.50057125 C179.00291443 271.25057125 179.00291443 230.00057125 179.00291443 187.50057125 C149.51882369 187.61936308 149.51882369 187.61936308 120.03489685 187.77083492 C114.33555603 187.78438473 114.33555603 187.78438473 111.668396 187.78690243 C109.80350601 187.79151259 107.93862502 187.80207085 106.0737915 187.81729794 C103.25077247 187.83919888 100.42830038 187.84229128 97.60520935 187.84114742 C96.77285106 187.85194175 95.94049276 187.86273607 95.08291149 187.8738575 C89.43155221 187.84312103 89.43155221 187.84312103 87.29062939 186.13218307 C85.43534026 183.78142085 85.62196837 182.03601635 85.61473083 179.0669775 C85.60527435 177.95572506 85.59581787 176.84447262 85.58607483 175.69954586 C85.59518387 173.89949093 85.59518387 173.89949093 85.60447693 172.06307125 C85.60017166 170.21564327 85.60017166 170.21564327 85.59577942 168.33089352 C85.59321285 165.05709168 85.60529833 161.78371588 85.62205505 158.50997066 C85.6279089 156.5024674 85.62207648 154.49535756 85.61180115 152.48787594 C85.59330463 148.6377543 85.59550451 144.78821691 85.60447693 140.93807125 C85.59840424 139.73803463 85.59233154 138.53799801 85.58607483 137.30159664 C85.60025955 135.63471798 85.60025955 135.63471798 85.61473083 133.934165 C85.61711761 132.95504147 85.61950439 131.97591793 85.6219635 130.96712399 C86.08096923 127.99518781 86.64024125 127.30347768 89.00291443 125.50057125 C91.32473755 125.12025452 91.32473755 125.12025452 94.11106873 125.1128912 C95.16789352 125.10298656 96.22471832 125.09308193 97.31356812 125.08287716 C99.05278282 125.08962963 99.05278282 125.08962963 100.82713318 125.09651852 C102.0486055 125.08965527 103.27007782 125.08279202 104.52856445 125.07572079 C107.88251132 125.06053285 111.23590337 125.0589666 114.58984375 125.06466317 C117.39491215 125.06775369 120.19993028 125.06166312 123.00499153 125.05562443 C129.631783 125.04156379 136.25844565 125.04314922 142.88523865 125.05452633 C149.70111023 125.06597026 156.51658662 125.05199872 163.33240604 125.02512985 C169.19588762 125.00288819 175.05924596 124.99635556 180.92276669 125.00220627 C184.41917298 125.00556166 187.91532689 125.00325804 191.41169739 124.98595524 C195.3224651 124.96744911 199.23275823 124.98175984 203.14353943 124.99886227 C204.28682205 124.9891943 205.43010468 124.97952633 206.60803223 124.96956539 C216.76413498 125.06209647 225.71425416 127.27796145 233.21385193 134.43807125 C240.06849115 142.34036276 242.15262191 149.24900951 242.15008545 159.54466915 C242.15376214 160.34972342 242.15743883 161.15477769 242.16122693 161.98422754 C242.17223155 164.67929784 242.17610214 167.37432954 242.17991638 170.06941891 C242.18618349 172.00302407 242.19283051 173.93662803 242.1998291 175.87023067 C242.22084331 182.21835655 242.23122935 188.56648258 242.24119568 194.91463375 C242.24524429 197.10264632 242.24936124 199.29065876 242.25354576 201.47867107 C242.272592 211.75961151 242.28682396 222.04054479 242.29515773 232.32149947 C242.30492696 244.17656989 242.33124077 256.03145344 242.37165862 267.88645804 C242.40185045 277.05778173 242.41662954 286.22905195 242.41993874 295.40042436 C242.42228579 300.87422538 242.43120145 306.34782664 242.45639992 311.82157421 C242.4797391 316.97460251 242.48389032 322.12730033 242.47363853 327.28036785 C242.47314448 329.16568001 242.47942622 331.05100877 242.49319458 332.93627071 C242.58496757 346.25371945 241.9895514 357.43670502 232.28807068 367.55525875 C224.67279034 374.03801022 216.74456425 375.65015631 206.9967804 375.64774227 C206.19580968 375.65141896 205.39483896 375.65509565 204.56959641 375.65888375 C201.88834561 375.66988789 199.20713361 375.67375887 196.52586365 375.6775732 C194.60211057 375.68384035 192.67835871 375.69048737 190.75460815 375.69748592 C184.43894794 375.71849971 178.12328757 375.72888615 171.80760193 375.7388525 C169.63073336 375.74290113 167.45386492 375.74701808 165.27699661 375.75120258 C155.04838192 375.77024874 144.81977441 375.78448071 134.5911454 375.79281455 C122.79663508 375.80258369 111.0023126 375.82889731 99.20786846 375.86931545 C90.0832535 375.89950789 80.95869229 375.91428642 71.83402836 375.91759557 C66.38817258 375.91994254 60.9425176 375.92885732 55.49671555 375.95405674 C50.36995158 375.97739701 45.24351978 375.98154671 40.11671638 375.97129536 C38.24107951 375.97080133 36.36542595 375.9770823 34.48983955 375.9908514 C21.19979552 376.08291246 10.04439432 375.46574462 -0.05177307 365.7857275 C-5.92353326 358.88817788 -8.11597286 351.44818244 -8.13130665 342.52412987 C-8.13576449 341.31835334 -8.14022234 340.11257682 -8.14481527 338.87026161 C-8.14472598 337.53572268 -8.14453615 336.20118376 -8.14425659 334.86664486 C-8.14755727 333.44624801 -8.15128327 332.02585209 -8.15539807 330.60545737 C-8.16540207 326.70233374 -8.16913225 322.79922549 -8.17178738 318.89609087 C-8.17569489 314.68678567 -8.18527255 310.4774926 -8.19400024 306.26819515 C-8.21374644 296.10629263 -8.22382606 285.94438913 -8.23272803 275.78247222 C-8.23711177 270.99875708 -8.24247815 266.21504304 -8.2477169 261.43132877 C-8.26472321 245.53457875 -8.2792199 229.63782942 -8.28646564 213.7410717 C-8.28837556 209.61752922 -8.29029589 205.49398675 -8.29225159 201.3704443 C-8.29273533 200.34554957 -8.29321907 199.32065483 -8.29371747 198.26470269 C-8.30202736 181.64224894 -8.32738308 165.01986693 -8.35983226 148.39744454 C-8.39286268 131.33859828 -8.41091054 114.27978855 -8.41410989 97.22091013 C-8.41627813 87.63991567 -8.42507317 78.05902598 -8.45057106 68.47806263 C-8.47222278 60.32354103 -8.48035565 52.16914968 -8.47060428 44.01460259 C-8.46604418 39.85204774 -8.46804457 35.68976196 -8.48736572 31.52724361 C-8.50488807 27.71952584 -8.5040897 23.91227563 -8.48846843 20.10455365 C-8.48607567 18.72442009 -8.49050159 17.34425508 -8.50229708 15.96416985 C-8.51730225 14.09322746 -8.50541368 12.22212647 -8.4920702 10.35117149 C-8.49304701 9.31041039 -8.49402382 8.26964929 -8.49503022 7.19734997 C-7.61645732 2.43915707 -4.81434783 0.00075966 0 0 Z " fill="#FDFEFD" transform="translate(552.9970855712891,419.4994287490845)"/>
</svg>
